<svg width="19" height="25" viewBox="0 0 19 25" fill="none" xmlns="http://www.w3.org/2000/svg">
<path d="M0.949972 12.9999L17.1323 12.9999L11.21 20.7849C11.1743 20.8318 11.146 20.8876 11.1267 20.9489C11.1074 21.0102 11.0974 21.076 11.0974 21.1424C11.0974 21.2088 11.1074 21.2745 11.1267 21.3358C11.146 21.3972 11.1743 21.4529 11.21 21.4999C11.2457 21.5468 11.288 21.5841 11.3346 21.6095C11.3812 21.6349 11.4312 21.6479 11.4817 21.6479C11.5321 21.6479 11.5821 21.6349 11.6287 21.6095C11.6753 21.5841 11.7177 21.5468 11.7534 21.4999L18.3179 12.8549C18.3358 12.8314 18.3518 12.8054 18.3654 12.7774C18.3718 12.7654 18.3775 12.7529 18.3825 12.7399L18.4015 12.6899L18.4129 12.6399C18.414 12.6257 18.414 12.6115 18.4129 12.5974C18.4226 12.533 18.4226 12.4667 18.4129 12.4024C18.414 12.3882 18.414 12.374 18.4129 12.3599L18.4015 12.3099L18.3825 12.2599C18.3775 12.2468 18.3718 12.2343 18.3654 12.2224C18.3518 12.1943 18.3358 12.1683 18.3179 12.1449L11.7534 3.49987C11.718 3.45225 11.6757 3.41441 11.6291 3.38857C11.5824 3.36274 11.5323 3.34943 11.4817 3.34943C11.4311 3.34943 11.3809 3.36274 11.3343 3.38857C11.2876 3.41441 11.2454 3.45225 11.21 3.49987C11.1746 3.5463 11.1466 3.60145 11.1275 3.66215C11.1084 3.72285 11.0985 3.78791 11.0985 3.85362C11.0985 3.91933 11.1084 3.98439 11.1275 4.04509C11.1466 4.10579 11.1746 4.16093 11.21 4.20737L17.1323 11.9999L0.949972 11.9999C0.84919 11.9999 0.752535 12.0525 0.681271 12.1463C0.610006 12.2401 0.569971 12.3673 0.569971 12.4999C0.569971 12.6325 0.610006 12.7597 0.681271 12.8534C0.752535 12.9472 0.84919 12.9999 0.949972 12.9999Z" fill="black"/>
</svg>
