<svg width="18" height="18" viewBox="0 0 18 18" fill="none" xmlns="http://www.w3.org/2000/svg">
<path d="M8.55896 13.3092C8.27415 13.3092 7.99575 13.3937 7.75894 13.5519C7.52213 13.7101 7.33756 13.935 7.22857 14.1981C7.11958 14.4613 7.09106 14.7508 7.14663 15.0301C7.20219 15.3095 7.33934 15.566 7.54073 15.7674C7.74211 15.9688 7.9987 16.106 8.27803 16.1615C8.55736 16.2171 8.8469 16.1886 9.11003 16.0796C9.37315 15.9706 9.59805 15.786 9.75628 15.5492C9.91451 15.3124 9.99896 15.034 9.99896 14.7492C9.99896 14.3673 9.84725 14.001 9.5772 13.731C9.30714 13.4609 8.94087 13.3092 8.55896 13.3092ZM8.55896 15.4692C8.41656 15.4692 8.27735 15.427 8.15895 15.3479C8.04055 15.2687 7.94826 15.1563 7.89377 15.0247C7.83927 14.8932 7.82501 14.7484 7.85279 14.6087C7.88058 14.4691 7.94915 14.3408 8.04984 14.2401C8.15054 14.1394 8.27883 14.0708 8.41849 14.043C8.55816 14.0153 8.70293 14.0295 8.83449 14.084C8.96606 14.1385 9.0785 14.2308 9.15762 14.3492C9.23673 14.4676 9.27896 14.6068 9.27896 14.7492C9.27754 14.9392 9.20105 15.121 9.06618 15.2548C8.93131 15.3887 8.74898 15.4638 8.55896 15.4638V15.4692Z" fill="black"/>
<path d="M13.8276 13.3092C13.5428 13.3092 13.2644 13.3937 13.0276 13.5519C12.7907 13.7101 12.6062 13.935 12.4972 14.1981C12.3882 14.4613 12.3597 14.7508 12.4152 15.0301C12.4708 15.3095 12.608 15.566 12.8093 15.7674C13.0107 15.9688 13.2673 16.106 13.5466 16.1615C13.826 16.2171 14.1155 16.1886 14.3786 16.0796C14.6418 15.9706 14.8667 15.786 15.0249 15.5492C15.1831 15.3124 15.2676 15.034 15.2676 14.7492C15.2676 14.3673 15.1159 14.001 14.8458 13.731C14.5758 13.4609 14.2095 13.3092 13.8276 13.3092ZM13.8276 15.4692C13.6852 15.4692 13.546 15.427 13.4276 15.3479C13.3092 15.2687 13.2169 15.1563 13.1624 15.0247C13.1079 14.8932 13.0936 14.7484 13.1214 14.6087C13.1492 14.4691 13.2178 14.3408 13.3185 14.2401C13.4191 14.1394 13.5474 14.0708 13.6871 14.043C13.8268 14.0153 13.9715 14.0295 14.1031 14.084C14.2347 14.1385 14.3471 14.2308 14.4262 14.3492C14.5053 14.4676 14.5476 14.6068 14.5476 14.7492C14.5461 14.9392 14.4697 15.121 14.3348 15.2548C14.1999 15.3887 14.0176 15.4638 13.8276 15.4638V15.4692Z" fill="black"/>
<path d="M15.975 11.115L17.4312 4.6134C17.4692 4.4434 17.4685 4.26704 17.4293 4.09733C17.39 3.92762 17.313 3.76891 17.2042 3.63292C17.0953 3.49693 16.9573 3.38714 16.8003 3.31165C16.6433 3.23616 16.4714 3.19691 16.2972 3.1968H4.94458L4.72138 2.1042C4.70455 2.02166 4.65931 1.94763 4.59353 1.89501C4.52775 1.84239 4.4456 1.8145 4.36138 1.8162H0.899978C0.8045 1.8162 0.712933 1.85413 0.64542 1.92164C0.577906 1.98915 0.539978 2.08072 0.539978 2.1762C0.539978 2.27168 0.577906 2.36324 0.64542 2.43076C0.712933 2.49827 0.8045 2.5362 0.899978 2.5362H4.07518L4.29838 3.6288L5.82838 11.1078L6.17218 12.78C6.18901 12.8625 6.23425 12.9366 6.30003 12.9892C6.36581 13.0418 6.44796 13.0697 6.53218 13.068H16.5816C16.6771 13.068 16.7686 13.0301 16.8361 12.9626C16.9037 12.895 16.9416 12.8035 16.9416 12.708C16.9416 12.6125 16.9037 12.521 16.8361 12.4534C16.7686 12.3859 16.6771 12.348 16.5816 12.348H6.81838L6.62218 11.3922H15.6222C15.7037 11.3928 15.783 11.3656 15.847 11.3153C15.9111 11.2649 15.9562 11.1943 15.975 11.115ZM6.47998 10.6758L5.09218 3.9168H16.2972C16.3637 3.91646 16.4294 3.93117 16.4895 3.95983C16.5495 3.98849 16.6022 4.03036 16.6438 4.0823C16.6854 4.13424 16.7146 4.19491 16.7294 4.25977C16.7442 4.32462 16.7441 4.39198 16.7292 4.4568L15.3342 10.6758H6.47998Z" fill="black"/>
</svg>
